<svg width="30" height="30" viewBox="0 0 30 30" fill="none" xmlns="http://www.w3.org/2000/svg">
    <path fill-rule="evenodd" clip-rule="evenodd"
          d="M15.0001 26.25V26.25C14.6676 26.25 14.3501 26.1187 14.1151 25.8825L4.40631 16.1575C1.86131 13.6075 1.86131 9.45875 4.40631 6.90875C5.63506 5.67875 7.27631 5 9.02506 5C10.7738 5 12.4151 5.67875 13.6438 6.90875L15.0001 8.2675L16.3551 6.91C17.5851 5.67875 19.2263 5 20.9751 5C22.7238 5 24.3651 5.67875 25.5938 6.90875C28.1388 9.45875 28.1388 13.6075 25.5951 16.1575L15.8851 25.8838C15.6501 26.1188 15.3326 26.25 15.0001 26.25"
          fill="#231F20"/>
    <mask id="mask0_122_714" style="mask-type:alpha" maskUnits="userSpaceOnUse" x="2" y="5" width="26" height="22">
        <path fill-rule="evenodd" clip-rule="evenodd"
              d="M15.0001 26.25V26.25C14.6676 26.25 14.3501 26.1187 14.1151 25.8825L4.40631 16.1575C1.86131 13.6075 1.86131 9.45875 4.40631 6.90875C5.63506 5.67875 7.27631 5 9.02506 5C10.7738 5 12.4151 5.67875 13.6438 6.90875L15.0001 8.2675L16.3551 6.91C17.5851 5.67875 19.2263 5 20.9751 5C22.7238 5 24.3651 5.67875 25.5938 6.90875C28.1388 9.45875 28.1388 13.6075 25.5951 16.1575L15.8851 25.8838C15.6501 26.1188 15.3326 26.25 15.0001 26.25"
              fill="white"/>
    </mask>
    <g mask="url(#mask0_122_714)">
        <g filter="url(#filter0_d_122_714)">
            <rect width="30" height="30" fill="#BDBDBD"/>
        </g>
    </g>
    <defs>
        <filter id="filter0_d_122_714" x="-4" y="0" width="38" height="38" filterUnits="userSpaceOnUse"
                color-interpolation-filters="sRGB">
            <feFlood flood-opacity="0" result="BackgroundImageFix"/>
            <feColorMatrix in="SourceAlpha" type="matrix" values="0 0 0 0 0 0 0 0 0 0 0 0 0 0 0 0 0 0 127 0"
                           result="hardAlpha"/>
            <feOffset dy="4"/>
            <feGaussianBlur stdDeviation="2"/>
            <feComposite in2="hardAlpha" operator="out"/>
            <feColorMatrix type="matrix" values="0 0 0 0 0 0 0 0 0 0 0 0 0 0 0 0 0 0 0.25 0"/>
            <feBlend mode="normal" in2="BackgroundImageFix" result="effect1_dropShadow_122_714"/>
            <feBlend mode="normal" in="SourceGraphic" in2="effect1_dropShadow_122_714" result="shape"/>
        </filter>
    </defs>
</svg>
