<svg width="17" height="16" viewBox="0 0 17 16" fill="none" xmlns="http://www.w3.org/2000/svg">
<path fill-rule="evenodd" clip-rule="evenodd" d="M2.70377 3.96948H13.7846C14.1384 3.96948 14.4277 4.248 14.4277 4.58871V4.67339C14.4277 5.0141 14.1384 5.29262 13.7846 5.29262H2.70377C2.34996 5.29262 2.06141 5.0141 2.06141 4.67339V4.58871C2.06141 4.248 2.34996 3.96948 2.70377 3.96948ZM3.43506 7.9389C3.43506 8.30475 3.12728 8.60047 2.74805 8.60047C2.36882 8.60047 2.06104 8.30475 2.06104 7.9389C2.06104 7.57305 2.36882 7.27733 2.74805 7.27733C3.12728 7.27733 3.43506 7.57305 3.43506 7.9389ZM5.4518 7.27733H13.7846C14.1384 7.27733 14.4276 7.55585 14.4276 7.89656V7.98124C14.4276 8.32195 14.1384 8.60047 13.7846 8.60047H5.4518C5.09798 8.60047 4.80944 8.32195 4.80944 7.98124V7.89656C4.80944 7.55585 5.09798 7.27733 5.4518 7.27733ZM13.7846 10.5852H2.70374C2.34992 10.5852 2.06138 10.8637 2.06138 11.2044V11.2891C2.06138 11.6298 2.34992 11.9083 2.70374 11.9083H13.7846C14.1384 11.9083 14.4276 11.6298 14.4276 11.2891V11.2044C14.4276 10.8637 14.1384 10.5852 13.7846 10.5852Z" fill="#231F20"/>
<mask id="mask0_36_2506" style="mask-type:alpha" maskUnits="userSpaceOnUse" x="2" y="3" width="13" height="9">
<path fill-rule="evenodd" clip-rule="evenodd" d="M2.70377 3.96948H13.7846C14.1384 3.96948 14.4277 4.248 14.4277 4.58871V4.67339C14.4277 5.0141 14.1384 5.29262 13.7846 5.29262H2.70377C2.34996 5.29262 2.06141 5.0141 2.06141 4.67339V4.58871C2.06141 4.248 2.34996 3.96948 2.70377 3.96948ZM3.43506 7.9389C3.43506 8.30475 3.12728 8.60047 2.74805 8.60047C2.36882 8.60047 2.06104 8.30475 2.06104 7.9389C2.06104 7.57305 2.36882 7.27733 2.74805 7.27733C3.12728 7.27733 3.43506 7.57305 3.43506 7.9389ZM5.4518 7.27733H13.7846C14.1384 7.27733 14.4276 7.55585 14.4276 7.89656V7.98124C14.4276 8.32195 14.1384 8.60047 13.7846 8.60047H5.4518C5.09798 8.60047 4.80944 8.32195 4.80944 7.98124V7.89656C4.80944 7.55585 5.09798 7.27733 5.4518 7.27733ZM13.7846 10.5852H2.70374C2.34992 10.5852 2.06138 10.8637 2.06138 11.2044V11.2891C2.06138 11.6298 2.34992 11.9083 2.70374 11.9083H13.7846C14.1384 11.9083 14.4276 11.6298 14.4276 11.2891V11.2044C14.4276 10.8637 14.1384 10.5852 13.7846 10.5852Z" fill="white"/>
</mask>
<g mask="url(#mask0_36_2506)">
<rect width="16.4883" height="15.8777" fill="white"/>
</g>
</svg>
