<svg width="28" height="24" viewBox="0 0 28 24" fill="none" xmlns="http://www.w3.org/2000/svg">
<path fill-rule="evenodd" clip-rule="evenodd" d="M6.98079 5.95419C6.14539 5.95419 5.36219 6.28564 4.77624 6.88799C3.55987 8.13836 3.55987 10.1737 4.77721 11.426L11.6026 18.443L18.429 11.426C19.6463 10.1737 19.6463 8.13836 18.429 6.88799C17.2571 5.68228 15.1918 5.68427 14.0199 6.88799L12.2872 8.66927C11.9236 9.04339 11.2816 9.04339 10.918 8.66927L9.18535 6.887C8.5994 6.28564 7.81717 5.95419 6.98079 5.95419M11.6026 20.8395V20.8395C11.3464 20.8395 11.0998 20.7353 10.919 20.5478L3.40807 12.8272C1.43944 10.8028 1.43944 7.50921 3.40807 5.48481C4.3595 4.50833 5.62809 3.96948 6.9808 3.96948C8.3335 3.96948 9.60305 4.50833 10.5535 5.48481L11.6026 6.5635L12.6517 5.4858C13.6032 4.50833 14.8717 3.96948 16.2254 3.96948C17.5772 3.96948 18.8467 4.50833 19.7972 5.48481C21.7668 7.50921 21.7668 10.8028 19.7981 12.8272L12.2872 20.5488C12.1054 20.7353 11.8598 20.8395 11.6026 20.8395" fill="#231F20"/>
<mask id="mask0_102_319" style="mask-type:alpha" maskUnits="userSpaceOnUse" x="1" y="3" width="21" height="18">
<path fill-rule="evenodd" clip-rule="evenodd" d="M6.98079 5.95419C6.14539 5.95419 5.36219 6.28564 4.77624 6.88799C3.55987 8.13836 3.55987 10.1737 4.77721 11.426L11.6026 18.443L18.429 11.426C19.6463 10.1737 19.6463 8.13836 18.429 6.88799C17.2571 5.68228 15.1918 5.68427 14.0199 6.88799L12.2872 8.66927C11.9236 9.04339 11.2816 9.04339 10.918 8.66927L9.18535 6.887C8.5994 6.28564 7.81717 5.95419 6.98079 5.95419M11.6026 20.8395V20.8395C11.3464 20.8395 11.0998 20.7353 10.919 20.5478L3.40807 12.8272C1.43944 10.8028 1.43944 7.50921 3.40807 5.48481C4.3595 4.50833 5.62809 3.96948 6.9808 3.96948C8.3335 3.96948 9.60305 4.50833 10.5535 5.48481L11.6026 6.5635L12.6517 5.4858C13.6032 4.50833 14.8717 3.96948 16.2254 3.96948C17.5772 3.96948 18.8467 4.50833 19.7972 5.48481C21.7668 7.50921 21.7668 10.8028 19.7981 12.8272L12.2872 20.5488C12.1054 20.7353 11.8598 20.8395 11.6026 20.8395" fill="white"/>
</mask>
<g mask="url(#mask0_102_319)">
<rect width="23.2058" height="23.8165" fill="#001A34"/>
</g>
<rect x="11.6029" width="15.8777" height="15.267" rx="7.6335" fill="#F91155"/>
</svg>
