<svg width="40" height="40" viewBox="0 0 40 40" fill="none" xmlns="http://www.w3.org/2000/svg">
<path fill-rule="evenodd" clip-rule="evenodd" d="M12.0329 9.99999C10.5929 9.99999 9.24286 10.5567 8.23286 11.5683C6.1362 13.6683 6.1362 17.0867 8.23453 19.19L19.9995 30.975L31.7662 19.19C33.8645 17.0867 33.8645 13.6683 31.7662 11.5683C29.7462 9.54332 26.1862 9.54665 24.1662 11.5683L21.1795 14.56C20.5529 15.1883 19.4462 15.1883 18.8195 14.56L15.8329 11.5667C14.8229 10.5567 13.4745 9.99999 12.0329 9.99999M19.9995 35V35C19.5579 35 19.1329 34.825 18.8212 34.51L5.87453 21.5433C2.4812 18.1433 2.4812 12.6117 5.87453 9.21166C7.51453 7.57166 9.7012 6.66666 12.0329 6.66666C14.3645 6.66666 16.5529 7.57166 18.1912 9.21166L19.9995 11.0233L21.8079 9.21332C23.4479 7.57166 25.6345 6.66666 27.9679 6.66666C30.2979 6.66666 32.4862 7.57166 34.1245 9.21166C37.5195 12.6117 37.5195 18.1433 34.1262 21.5433L21.1795 34.5117C20.8662 34.825 20.4429 35 19.9995 35" fill="#231F20"/>
<mask id="mask0_53_667" style="mask-type:alpha" maskUnits="userSpaceOnUse" x="3" y="6" width="34" height="29">
<path fill-rule="evenodd" clip-rule="evenodd" d="M12.0329 9.99999C10.5929 9.99999 9.24286 10.5567 8.23286 11.5683C6.1362 13.6683 6.1362 17.0867 8.23453 19.19L19.9995 30.975L31.7662 19.19C33.8645 17.0867 33.8645 13.6683 31.7662 11.5683C29.7462 9.54332 26.1862 9.54665 24.1662 11.5683L21.1795 14.56C20.5529 15.1883 19.4462 15.1883 18.8195 14.56L15.8329 11.5667C14.8229 10.5567 13.4745 9.99999 12.0329 9.99999M19.9995 35V35C19.5579 35 19.1329 34.825 18.8212 34.51L5.87453 21.5433C2.4812 18.1433 2.4812 12.6117 5.87453 9.21166C7.51453 7.57166 9.7012 6.66666 12.0329 6.66666C14.3645 6.66666 16.5529 7.57166 18.1912 9.21166L19.9995 11.0233L21.8079 9.21332C23.4479 7.57166 25.6345 6.66666 27.9679 6.66666C30.2979 6.66666 32.4862 7.57166 34.1245 9.21166C37.5195 12.6117 37.5195 18.1433 34.1262 21.5433L21.1795 34.5117C20.8662 34.825 20.4429 35 19.9995 35" fill="white"/>
</mask>
<g mask="url(#mask0_53_667)">
<rect width="40" height="40" fill="#D0D0D0"/>
</g>
</svg>
