<svg width="18" height="19" viewBox="0 0 18 19" fill="none" xmlns="http://www.w3.org/2000/svg">
<path fill-rule="evenodd" clip-rule="evenodd" d="M9 8.70786C8.37975 8.70786 7.875 8.17507 7.875 7.52036C7.875 6.86565 8.37975 6.33286 9 6.33286C9.62025 6.33286 10.125 6.86565 10.125 7.52036C10.125 8.17507 9.62025 8.70786 9 8.70786ZM9 4.74952C7.5525 4.74952 6.375 5.99244 6.375 7.52035C6.375 9.04827 7.5525 10.2912 9 10.2912C10.4475 10.2912 11.625 9.04827 11.625 7.52035C11.625 5.99244 10.4475 4.74952 9 4.74952ZM9 15.553C7.74375 14.299 4.5 10.7785 4.5 7.85484C4.5 5.27004 6.51825 3.16658 9 3.16658C11.4818 3.16658 13.5 5.27004 13.5 7.85484C13.5 10.7785 10.2562 14.299 9 15.553ZM9 1.58325C5.69175 1.58325 3 4.39604 3 7.85483C3 12.1892 8.28675 17.0215 8.51175 17.225C8.65275 17.3525 8.826 17.4166 9 17.4166C9.174 17.4166 9.34725 17.3525 9.48825 17.225C9.71325 17.0215 15 12.1892 15 7.85483C15 4.39604 12.3082 1.58325 9 1.58325Z" fill="#231F20"/>
<mask id="mask0_36_2479" style="mask-type:alpha" maskUnits="userSpaceOnUse" x="3" y="1" width="12" height="17">
<path fill-rule="evenodd" clip-rule="evenodd" d="M9 8.70786C8.37975 8.70786 7.875 8.17507 7.875 7.52036C7.875 6.86565 8.37975 6.33286 9 6.33286C9.62025 6.33286 10.125 6.86565 10.125 7.52036C10.125 8.17507 9.62025 8.70786 9 8.70786ZM9 4.74952C7.5525 4.74952 6.375 5.99244 6.375 7.52035C6.375 9.04827 7.5525 10.2912 9 10.2912C10.4475 10.2912 11.625 9.04827 11.625 7.52035C11.625 5.99244 10.4475 4.74952 9 4.74952ZM9 15.553C7.74375 14.299 4.5 10.7785 4.5 7.85484C4.5 5.27004 6.51825 3.16658 9 3.16658C11.4818 3.16658 13.5 5.27004 13.5 7.85484C13.5 10.7785 10.2562 14.299 9 15.553ZM9 1.58325C5.69175 1.58325 3 4.39604 3 7.85483C3 12.1892 8.28675 17.0215 8.51175 17.225C8.65275 17.3525 8.826 17.4166 9 17.4166C9.174 17.4166 9.34725 17.3525 9.48825 17.225C9.71325 17.0215 15 12.1892 15 7.85483C15 4.39604 12.3082 1.58325 9 1.58325Z" fill="white"/>
</mask>
<g mask="url(#mask0_36_2479)">
<rect width="18" height="19" fill="#485CC7"/>
</g>
</svg>
