<svg width="40" height="40" viewBox="0 0 40 40" fill="none" xmlns="http://www.w3.org/2000/svg">
<g id="Icons menu">
<path id="Mask" fill-rule="evenodd" clip-rule="evenodd" d="M25 31.6667V25H31.6667L31.6683 31.6667H25ZM31.6667 21.6667H25C23.1617 21.6667 21.6667 23.1617 21.6667 25V31.6667C21.6667 33.505 23.1617 35 25 35H31.6667C33.505 35 35 33.505 35 31.6667V25C35 23.1617 33.505 21.6667 31.6667 21.6667ZM8.33333 31.6667V25H15L15.0017 31.6667H8.33333ZM15 21.6667H8.33333C6.495 21.6667 5 23.1617 5 25V31.6667C5 33.505 6.495 35 8.33333 35H15C16.8383 35 18.3333 33.505 18.3333 31.6667V25C18.3333 23.1617 16.8383 21.6667 15 21.6667ZM25 15V8.33333H31.6667L31.6683 15H25ZM31.6667 5H25C23.1617 5 21.6667 6.495 21.6667 8.33333V15C21.6667 16.8383 23.1617 18.3333 25 18.3333H31.6667C33.505 18.3333 35 16.8383 35 15V8.33333C35 6.495 33.505 5 31.6667 5ZM8.33333 15V8.33333H15L15.0017 15H8.33333ZM15 5H8.33333C6.495 5 5 6.495 5 8.33333V15C5 16.8383 6.495 18.3333 8.33333 18.3333H15C16.8383 18.3333 18.3333 16.8383 18.3333 15V8.33333C18.3333 6.495 16.8383 5 15 5Z" fill="#231F20"/>
<mask id="mask0_50_640" style="mask-type:alpha" maskUnits="userSpaceOnUse" x="5" y="5" width="30" height="30">
<path id="Mask_2" fill-rule="evenodd" clip-rule="evenodd" d="M25 31.6667V25H31.6667L31.6683 31.6667H25ZM31.6667 21.6667H25C23.1617 21.6667 21.6667 23.1617 21.6667 25V31.6667C21.6667 33.505 23.1617 35 25 35H31.6667C33.505 35 35 33.505 35 31.6667V25C35 23.1617 33.505 21.6667 31.6667 21.6667ZM8.33333 31.6667V25H15L15.0017 31.6667H8.33333ZM15 21.6667H8.33333C6.495 21.6667 5 23.1617 5 25V31.6667C5 33.505 6.495 35 8.33333 35H15C16.8383 35 18.3333 33.505 18.3333 31.6667V25C18.3333 23.1617 16.8383 21.6667 15 21.6667ZM25 15V8.33333H31.6667L31.6683 15H25ZM31.6667 5H25C23.1617 5 21.6667 6.495 21.6667 8.33333V15C21.6667 16.8383 23.1617 18.3333 25 18.3333H31.6667C33.505 18.3333 35 16.8383 35 15V8.33333C35 6.495 33.505 5 31.6667 5ZM8.33333 15V8.33333H15L15.0017 15H8.33333ZM15 5H8.33333C6.495 5 5 6.495 5 8.33333V15C5 16.8383 6.495 18.3333 8.33333 18.3333H15C16.8383 18.3333 18.3333 16.8383 18.3333 15V8.33333C18.3333 6.495 16.8383 5 15 5Z" fill="white"/>
</mask>
<g mask="url(#mask0_50_640)">
<g id="&#240;&#159;&#142;&#168; Color">
<rect id="Base" width="40" height="40" fill="#D0D0D0"/>
</g>
</g>
</g>
</svg>
