<svg width="16" height="17" viewBox="0 0 16 17" fill="none" xmlns="http://www.w3.org/2000/svg">
    <path fill-rule="evenodd" clip-rule="evenodd"
          d="M4.07223 7.88687C4.07223 5.76405 5.75193 4.0377 7.81737 4.0377C9.88282 4.0377 11.5625 5.76405 11.5625 7.88687C11.5625 10.0097 9.88282 11.736 7.81737 11.736C5.75193 11.736 4.07223 10.0097 4.07223 7.88687M13.8764 13.2071L11.7573 11.0284C12.4145 10.1598 12.8109 9.07113 12.8109 7.88686C12.8109 5.05708 10.5707 2.75464 7.81737 2.75464C5.06407 2.75464 2.82385 5.05708 2.82385 7.88686C2.82385 10.7166 5.06407 13.0191 7.81737 13.0191C8.96963 13.0191 10.0289 12.6117 10.874 11.9362L12.9938 14.1142C13.1155 14.2393 13.2753 14.3021 13.4351 14.3021C13.5949 14.3021 13.7547 14.2393 13.8764 14.1142C14.1204 13.8633 14.1204 13.4579 13.8764 13.2071"
          fill="#231F20"/>
    <mask id="mask0_36_2513" style="mask-type:alpha" maskUnits="userSpaceOnUse" x="2" y="2" width="13" height="13">
        <path fill-rule="evenodd" clip-rule="evenodd"
              d="M4.07223 7.88687C4.07223 5.76405 5.75193 4.0377 7.81737 4.0377C9.88282 4.0377 11.5625 5.76405 11.5625 7.88687C11.5625 10.0097 9.88282 11.736 7.81737 11.736C5.75193 11.736 4.07223 10.0097 4.07223 7.88687M13.8764 13.2071L11.7573 11.0284C12.4145 10.1598 12.8109 9.07113 12.8109 7.88686C12.8109 5.05708 10.5707 2.75464 7.81737 2.75464C5.06407 2.75464 2.82385 5.05708 2.82385 7.88686C2.82385 10.7166 5.06407 13.0191 7.81737 13.0191C8.96963 13.0191 10.0289 12.6117 10.874 11.9362L12.9938 14.1142C13.1155 14.2393 13.2753 14.3021 13.4351 14.3021C13.5949 14.3021 13.7547 14.2393 13.8764 14.1142C14.1204 13.8633 14.1204 13.4579 13.8764 13.2071"
              fill="white"/>
    </mask>
    <g mask="url(#mask0_36_2513)">
        <rect x="0.951279" y="0.830078" width="14.9806" height="15.3967" fill="white"/>
    </g>
</svg>
