<svg width="40" height="40" viewBox="0 0 40 40" fill="none" xmlns="http://www.w3.org/2000/svg">
<path fill-rule="evenodd" clip-rule="evenodd" d="M27.303 23.3333H14.6063L11.878 13.3333H32.303L27.303 23.3333ZM35.138 11.58C34.5263 10.59 33.4663 10 32.303 10H10.9697L9.94134 6.22833C9.74301 5.50333 9.08467 5 8.33301 5H4.99967C4.07801 5 3.33301 5.74667 3.33301 6.66667C3.33301 7.58667 4.07801 8.33333 4.99967 8.33333H7.05967L11.7247 25.4383C11.923 26.1633 12.5813 26.6667 13.333 26.6667H28.333C28.9647 26.6667 29.5413 26.31 29.8247 25.745L35.2847 14.8233C35.8063 13.7817 35.7497 12.57 35.138 11.58ZM12.5 30C11.12 30 10 31.1183 10 32.5C10 33.8817 11.12 35 12.5 35C13.88 35 15 33.8817 15 32.5C15 31.1183 13.88 30 12.5 30ZM26.6667 32.5C26.6667 31.1183 27.7867 30 29.1667 30C30.5467 30 31.6667 31.1183 31.6667 32.5C31.6667 33.8817 30.5467 35 29.1667 35C27.7867 35 26.6667 33.8817 26.6667 32.5Z" fill="#231F20"/>
<mask id="mask0_53_651" style="mask-type:alpha" maskUnits="userSpaceOnUse" x="3" y="5" width="33" height="30">
<path fill-rule="evenodd" clip-rule="evenodd" d="M27.303 23.3333H14.6063L11.878 13.3333H32.303L27.303 23.3333ZM35.138 11.58C34.5263 10.59 33.4663 10 32.303 10H10.9697L9.94134 6.22833C9.74301 5.50333 9.08467 5 8.33301 5H4.99967C4.07801 5 3.33301 5.74667 3.33301 6.66667C3.33301 7.58667 4.07801 8.33333 4.99967 8.33333H7.05967L11.7247 25.4383C11.923 26.1633 12.5813 26.6667 13.333 26.6667H28.333C28.9647 26.6667 29.5413 26.31 29.8247 25.745L35.2847 14.8233C35.8063 13.7817 35.7497 12.57 35.138 11.58ZM12.5 30C11.12 30 10 31.1183 10 32.5C10 33.8817 11.12 35 12.5 35C13.88 35 15 33.8817 15 32.5C15 31.1183 13.88 30 12.5 30ZM26.6667 32.5C26.6667 31.1183 27.7867 30 29.1667 30C30.5467 30 31.6667 31.1183 31.6667 32.5C31.6667 33.8817 30.5467 35 29.1667 35C27.7867 35 26.6667 33.8817 26.6667 32.5Z" fill="white"/>
</mask>
<g mask="url(#mask0_53_651)">
<rect x="-0.689667" width="40" height="40" fill="#D0D0D0"/>
</g>
</svg>
