<svg width="28" height="24" viewBox="0 0 28 24" fill="none" xmlns="http://www.w3.org/2000/svg">
    <path fill-rule="evenodd" clip-rule="evenodd"
          d="M15.006 14.402H8.02781L6.52829 8.75322H17.7541L15.006 14.402ZM19.3123 7.7628C18.9761 7.20357 18.3935 6.87029 17.7541 6.87029H6.02906L5.46387 4.73976C5.35487 4.33022 4.99304 4.0459 4.57991 4.0459H2.74788C2.24132 4.0459 1.83186 4.46767 1.83186 4.98736C1.83186 5.50705 2.24132 5.92883 2.74788 5.92883H3.88007L6.44401 15.5911C6.55302 16.0006 6.91485 16.2849 7.32797 16.2849H15.5721C15.9193 16.2849 16.2363 16.0835 16.392 15.7643L19.3929 9.59489C19.6796 9.00647 19.6484 8.32203 19.3123 7.7628ZM6.87015 18.1679C6.11168 18.1679 5.49612 18.7996 5.49612 19.5801C5.49612 20.3605 6.11168 20.9923 6.87015 20.9923C7.62861 20.9923 8.24417 20.3605 8.24417 19.5801C8.24417 18.7996 7.62861 18.1679 6.87015 18.1679ZM14.6563 19.5801C14.6563 18.7996 15.2719 18.1679 16.0303 18.1679C16.7888 18.1679 17.4044 18.7996 17.4044 19.5801C17.4044 20.3605 16.7888 20.9923 16.0303 20.9923C15.2719 20.9923 14.6563 20.3605 14.6563 19.5801Z"
          fill="#231F20"/>
    <mask id="mask0_36_2519" style="mask-type:alpha" maskUnits="userSpaceOnUse" x="1" y="4" width="19" height="17">
        <path fill-rule="evenodd" clip-rule="evenodd"
              d="M15.006 14.402H8.02781L6.52829 8.75322H17.7541L15.006 14.402ZM19.3123 7.7628C18.9761 7.20357 18.3935 6.87029 17.7541 6.87029H6.02906L5.46387 4.73976C5.35487 4.33022 4.99304 4.0459 4.57991 4.0459H2.74788C2.24132 4.0459 1.83186 4.46767 1.83186 4.98736C1.83186 5.50705 2.24132 5.92883 2.74788 5.92883H3.88007L6.44401 15.5911C6.55302 16.0006 6.91485 16.2849 7.32797 16.2849H15.5721C15.9193 16.2849 16.2363 16.0835 16.392 15.7643L19.3929 9.59489C19.6796 9.00647 19.6484 8.32203 19.3123 7.7628ZM6.87015 18.1679C6.11168 18.1679 5.49612 18.7996 5.49612 19.5801C5.49612 20.3605 6.11168 20.9923 6.87015 20.9923C7.62861 20.9923 8.24417 20.3605 8.24417 19.5801C8.24417 18.7996 7.62861 18.1679 6.87015 18.1679ZM14.6563 19.5801C14.6563 18.7996 15.2719 18.1679 16.0303 18.1679C16.7888 18.1679 17.4044 18.7996 17.4044 19.5801C17.4044 20.3605 16.7888 20.9923 16.0303 20.9923C15.2719 20.9923 14.6563 20.3605 14.6563 19.5801Z"
              fill="white"/>
    </mask>
    <g mask="url(#mask0_36_2519)">
        <rect x="-0.379044" y="1.22144" width="21.9845" height="22.5951" fill="#0D1C2E"/>
    </g>
    <rect x="11.6029" width="15.8777" height="15.8777" rx="7.93884" fill="#F91155"/>
</svg>
