<svg width="26" height="24" viewBox="0 0 26 24" fill="none" xmlns="http://www.w3.org/2000/svg">
    <path d="M12.6816 24C18.096 24 21.1081 24 23.0757 22.0896C25.0434 20.1791 25.0434 17.2591 25.0434 11.9978C25.0434 6.73654 25.0434 3.8165 23.0757 1.90607C21.1081 0 18.1005 0 12.6816 0C7.26263 0 4.25509 0 2.29189 1.91043C0.324219 3.8165 0.324219 6.74089 0.324219 11.9978C0.324219 17.2548 0.324219 20.1791 2.29189 22.0896C4.25509 24 7.26711 24 12.6816 24Z"
          fill="#2CB5F5"/>
    <path d="M18.8246 7.03175L16.7522 16.6492C16.5959 17.328 16.1882 17.4969 15.6087 17.1771L12.4511 14.8874L10.9275 16.3294C10.7589 16.4953 10.6179 16.6341 10.2929 16.6341L10.5198 13.4695L16.3721 8.26561C16.6265 8.04237 16.3169 7.91868 15.9766 8.14192L8.74169 12.6248L5.62699 11.6655C4.94949 11.4573 4.93722 10.9988 5.76801 10.679L17.9509 6.06035C18.515 5.8522 19.0086 6.18404 18.8246 7.03175V7.03175Z"
          fill="white"/>
</svg>
